<svg width="50" height="50" fill="none" xmlns="http://www.w3.org/2000/svg"><path d="M42.672.146a6.057 6.057 0 00-2.236 1.172c-.499.44-10.569 12.454-10.569 12.61 0 .049.205.186.469.313 1.387.674 3.214 2.197 4.259 3.555.468.615 1.348 2.041 1.455 2.354.04.107 11.858-9.7 12.493-10.363.498-.518 1.025-1.426 1.25-2.169.283-.898.273-2.803-.01-3.653C49.158 2.1 47.595.625 45.73.146c-.752-.195-2.335-.195-3.058 0zM22.18 15.863a11.15 11.15 0 00-4.22 1.709c-.293.205-1.192.947-2.003 1.66-4.405 3.888-8.331 6.515-11.867 7.97-.616.254-1.778.626-2.589.82l-1.465.362-.029.723c-.068 1.485.371 3.79.967 5.08l.313.673.4-.058c1.407-.196 2.774-.479 3.594-.752l.938-.313-.176.244c-.097.137-.82.967-1.611 1.846-.782.88-1.417 1.66-1.397 1.729.049.205 1.524 1.856 2.188 2.442l.615.537 1.368-.693c2.041-1.036 4.395-2.599 6.007-3.995.254-.225.478-.4.498-.4.078 0-2.305 3.848-3.83 6.182-.439.684-.81 1.27-.81 1.3 0 .136 4.015-2.345 5.695-3.517.586-.41 1.045-.713 1.025-.674-.02.049-.234.479-.488.977-.625 1.21-1.065 2.275-1.641 4.034-.264.81-.488 1.494-.488 1.514 0 .068.84.42 2.49 1.045 1.827.693 2.1.703 3.292.146 2.764-1.28 6.593-5.079 10.94-10.861 3.828-5.109 4.532-6.632 4.512-9.768-.01-1.25-.049-1.611-.264-2.432-1.035-3.907-4.239-6.827-8.263-7.53-1.016-.176-2.725-.176-3.702 0zm9.99 24.857c-.508.206-.928.88-.928 1.485 0 .41.322 1.055.664 1.3.206.146.42.195.948.195.527 0 .742-.05.947-.196.342-.254.664-.889.664-1.338 0-.488-.38-1.143-.78-1.357-.353-.196-1.163-.245-1.515-.088zm4.002 3.302a3.368 3.368 0 00-1.553 1.572c-.156.342-.205.635-.205 1.28s.049.938.205 1.28c.313.673.889 1.25 1.553 1.572.498.234.713.273 1.377.273.684 0 .87-.039 1.387-.293a3.351 3.351 0 001.524-1.553c.293-.634.293-1.924 0-2.559a3.368 3.368 0 00-1.553-1.572c-.488-.225-.713-.274-1.367-.274-.655 0-.88.05-1.368.274zm-10.252 2.95c-.508.205-.928.879-.928 1.484 0 .41.322 1.055.664 1.3.206.146.42.195.948.195.527 0 .742-.05.947-.196.342-.254.664-.889.664-1.338 0-.488-.38-1.143-.78-1.358-.353-.195-1.163-.244-1.515-.087z" fill="#151515"/></svg>