<svg width="60" height="50" fill="none" xmlns="http://www.w3.org/2000/svg"><path d="M18.419.229c-3.252 1.055-5.473 4.393-5.89 8.884-.393 4.148 1.166 8.332 3.865 10.332 1.068.798 2.11 1.178 3.375 1.252 1.975.123 3.595-.503 5.03-1.914 1.424-1.412 2.259-2.982 2.848-5.387.38-1.534.38-4.528 0-6.062-.933-3.792-2.884-6.222-5.657-7.093-.994-.32-2.626-.32-3.571-.012zM37.307.167c-2.724.76-4.847 3.375-5.78 7.166-.38 1.534-.38 4.528 0 6.062.59 2.393 1.424 3.976 2.835 5.375 1.706 1.681 4.013 2.344 6.185 1.78 3.914-1.02 6.614-6.087 6.098-11.45-.429-4.54-2.724-7.927-6-8.908-.798-.234-2.516-.246-3.338-.025zM4.398 15.936c-2.012.65-3.644 2.552-4.197 4.92-.306 1.289-.257 3.412.11 4.847 1.56 6.148 7.707 8.872 11.474 5.093 1.878-1.89 2.577-5.154 1.78-8.283-.835-3.313-3.117-5.902-5.841-6.626-.92-.246-2.467-.221-3.326.049zm47.001-.05c-1.423.393-2.847 1.375-3.915 2.724-.907 1.142-1.509 2.381-1.901 3.927-.283 1.068-.307 1.387-.258 2.86.037 1.398.098 1.803.368 2.613.614 1.792 1.718 3.154 3.092 3.865 3.976 2.013 8.725-.895 10.063-6.172.368-1.436.417-3.558.11-4.847-.552-2.393-2.197-4.283-4.233-4.92-.872-.27-2.443-.295-3.326-.05zm-24.016 6.381c-4.504.712-8.602 3.547-11.461 7.94-1.46 2.245-2.761 5.411-3.4 8.32-.343 1.521-.392 3.816-.122 4.896.736 2.883 2.65 5.141 5.264 6.197.908.355 1.019.38 2.663.368 1.644 0 1.78-.025 3.08-.442 2.687-.883 5.227-1.203 7.682-.97 1.865.172 2.81.369 4.7.958 1.386.441 1.57.466 3.067.466 1.35 0 1.718-.05 2.418-.282 2.626-.908 4.748-3.338 5.51-6.295.27-1.056.22-3.363-.123-4.896-.639-2.896-1.927-6.062-3.4-8.32-3.84-5.89-9.829-8.884-15.878-7.94z" fill="#151515"/></svg>