<svg width="31" height="31" fill="none" xmlns="http://www.w3.org/2000/svg"><path d="M12.863.024C6.886.315 1.707 4.694.326 10.628c-.434 1.852-.434 4.3-.006 6.151 1.443 6.188 6.925 10.61 13.168 10.617h.936l.03.514a3.298 3.298 0 002.447 2.985c.54.143 11.032.137 11.571 0 1.034-.272 1.957-1.145 2.298-2.174.161-.501.167-1.641.006-2.137-.062-.186-1.071-1.994-2.236-4.013l-2.118-3.674.266-.78c.508-1.518.7-2.707.7-4.41 0-1.648-.192-2.88-.657-4.305C25.102 4.447 20.705.792 15.557.117c-.88-.118-1.647-.142-2.694-.093zm4.286 7.018c.198.21.217.266.186.496-.019.167-.39.941-1.06 2.236-.563 1.09-1.027 2.025-1.027 2.08 0 .057.05.168.111.242.111.137.136.137 1.456.13 1.505-.012 1.703.019 2.087.353.52.44.681 1.171.39 1.716-.167.31-4.88 6.015-5.11 6.188-.229.161-.694.167-.966 0a1.096 1.096 0 01-.34-.334c-.13-.205-.137-.304-.156-1.561-.018-1.301-.024-1.35-.155-1.443-.111-.075-.415-.093-1.808-.093-1.487 0-1.697-.013-1.92-.118a1.576 1.576 0 01-.744-.73c-.247-.509-.223-.602 1.165-4.808 1.288-3.883 1.288-3.896 1.56-4.162.453-.452.49-.458 3.488-.446l2.626.012.217.242zm6.083 9.644c.148.031.415.13.594.217.67.328.768.47 3.531 5.259 1.56 2.707 2.614 4.59 2.67 4.794.16.545.099 1.257-.161 1.778a2.625 2.625 0 01-2.032 1.455c-.539.069-9.768.069-10.307 0a2.625 2.625 0 01-2.032-1.455 2.597 2.597 0 01-.16-1.778c.055-.204 1.102-2.081 2.669-4.794 2.738-4.732 2.862-4.924 3.487-5.24.576-.285 1.17-.366 1.74-.236z" fill="#211F1F"/></svg>