<svg width="31" height="32" fill="none" xmlns="http://www.w3.org/2000/svg"><path d="M11.494.93c-.284.14-.539.413-.654.691-.042.097-.194 1.024-.339 2.053l-.266 1.866-.485.242a12.25 12.25 0 00-.993.575l-.515.333-1.762-.702c-1.545-.618-1.811-.703-2.12-.703-.406 0-.77.146-1.012.406-.133.146-2.773 4.657-3.203 5.475-.188.357-.194.945-.012 1.296.163.315.218.364 1.835 1.617l1.362 1.06-.006 1.175-.006 1.169-1.266.993C.32 19.826.29 19.856.14 20.142c-.176.345-.176.944-.006 1.284.284.55 3.003 5.226 3.161 5.42.242.309.624.484 1.06.484.315 0 .57-.084 2.126-.702l1.768-.703.388.26c.212.146.66.407.993.582l.606.309.278 1.944c.309 2.162.34 2.253.854 2.592l.254.17 3.362.018c2.174.012 3.44-.006 3.579-.042.297-.091.636-.382.781-.685.085-.181.194-.781.37-2.017.133-.969.254-1.81.272-1.877.018-.085.17-.194.466-.333.243-.115.685-.37.982-.57l.545-.35 1.774.708c1.478.587 1.83.703 2.096.703.424 0 .787-.152 1.03-.43.157-.182 2.797-4.694 3.227-5.512.158-.303.146-.92-.024-1.253-.151-.291-.26-.388-1.944-1.696l-1.23-.963v-2.35l1.26-.987c1.726-1.35 1.763-1.381 1.914-1.672.188-.357.182-.944-.012-1.314-.37-.72-3.058-5.323-3.204-5.475-.236-.254-.587-.4-1-.4-.32 0-.562.08-2.107.697-1.471.587-1.768.684-1.877.63a11.355 11.355 0 01-.557-.352 11.618 11.618 0 00-.873-.49c-.296-.14-.448-.248-.466-.333-.012-.067-.14-.915-.278-1.878-.134-.969-.285-1.84-.327-1.938a1.395 1.395 0 00-.654-.69C18.47.81 18.38.804 15.104.804c-3.289 0-3.361 0-3.61.127zm4.857 10.412c1.835.472 3.228 1.859 3.731 3.724.103.376.133.654.133 1.242 0 .587-.03.866-.133 1.241-.503 1.86-1.871 3.229-3.73 3.731-.685.188-1.8.188-2.484 0-1.859-.503-3.234-1.871-3.73-3.73-.182-.679-.182-1.805 0-2.484.739-2.767 3.5-4.42 6.213-3.724z" fill="#191717"/></svg>