<svg width="33" height="32" fill="none" xmlns="http://www.w3.org/2000/svg"><path d="M13.815.614c-.75.128-1.502.667-1.836 1.322-.745 1.47.084 3.294 1.663 3.647.302.07.32.09.45.404a2.445 2.445 0 001.463 1.4c.212.07.462.096.809.083l.507-.026.032.347c.077.745.693 1.522 1.412 1.791.398.154 1.072.186 1.445.084.18-.058.205-.045.205.064 0 .115.064.122 2.029.122h2.022l-.038-.148c-.09-.282-.386-.764-.565-.918l-.186-.154.211-.237c.11-.129.283-.398.373-.598.147-.308.167-.436.167-1.027 0-.622-.013-.706-.2-1.091a2.596 2.596 0 00-1.232-1.239c-.392-.186-.488-.205-1.04-.205h-.61l-.006-.514c0-.417-.032-.584-.18-.899a2.393 2.393 0 00-1.156-1.162c-.327-.154-.475-.18-.937-.18-.462-.006-.603.026-.93.174-.213.096-.52.308-.681.475l-.302.289-.07-.225C16.44 1.615 15.74.928 15.117.717a2.873 2.873 0 00-1.303-.103zM2.317.903C.892 1.416.25 3.034.905 4.433c.295.623 1.034 1.227 1.708 1.4.25.064.302.11.372.308.218.636.668 1.13 1.29 1.413.25.109.437.14.906.14l.59.007.039.296c.058.423.36 1.027.661 1.328.135.135.424.334.63.437.333.16.449.186.924.18.301 0 1.521-.007 2.715-.013 1.188-.007 2.164-.032 2.164-.058 0-.103-.38-.7-.533-.847l-.167-.148.186-.237c.912-1.137.713-2.838-.43-3.705-.443-.333-.93-.488-1.56-.494h-.546l-.006-.5c-.007-.412-.045-.572-.206-.912a2.268 2.268 0 00-1.097-1.13c-.309-.141-.443-.167-.97-.167-.545 0-.648.02-.988.186a3.05 3.05 0 00-.649.45l-.263.263-.154-.353c-.206-.463-.758-1.015-1.252-1.252-.327-.16-.475-.186-1.027-.206-.469-.013-.72.007-.925.084zm3.884 9.63c-.134.134-.128.333.032.873.078.243.219.84.315 1.322l.173.88 3.923.019 3.916.013.109-.623c.058-.347.193-.963.295-1.367.212-.848.225-.983.084-1.117-.09-.09-.578-.103-4.423-.103-3.846 0-4.334.013-4.424.103zm11.017 0c-.186.128-.18.237.077 1.322.122.507.256 1.13.295 1.387l.077.462 3.922-.013 3.917-.02.14-.77c.078-.423.22-1.072.315-1.431.187-.726.174-.886-.07-.982-.09-.032-1.875-.058-4.34-.058-3.685 0-4.205.013-4.333.103zM6.85 14.647c.032.206.051 1.15.051 2.106 0 1.483-.025 1.875-.154 2.729-.456 3.017-1.579 6.034-3.293 8.84-.238.391-.437.731-.437.75 0 .02 3.435.04 7.64.04s7.64-.014 7.64-.027c0-.012-.193-.34-.43-.719a34.06 34.06 0 01-1.022-1.906c-1.457-2.947-2.157-5.348-2.407-8.198-.077-.848-.045-3.416.045-3.807l.038-.174H6.805l.045.366z" fill="#211F1F"/><path d="M17.764 14.647c.102.739.05 3.717-.071 4.546a23.202 23.202 0 01-1.014 4.256l-.27.79.212.526c.314.77 1.175 2.446 1.804 3.499l.545.911h5.123c2.812 0 5.117-.012 5.117-.025 0-.013-.193-.34-.43-.72a33.994 33.994 0 01-1.021-1.906c-1.29-2.613-1.958-4.738-2.311-7.3-.122-.898-.16-3.19-.07-4.288l.057-.655H17.72l.044.366zM2.632 30.491v.803h-.32c-.245 0-.335.026-.386.122-.096.186-.077.314.064.456.129.128.212.128 13.982.128 10.984 0 13.88-.02 13.963-.077.276-.212.154-.63-.186-.63h-.154V29.69H2.632v.802zm-2.555.879c-.103.104-.103.45 0 .553.045.045.263.077.546.077.391 0 .475-.02.533-.122.09-.18.077-.366-.039-.482-.122-.128-.924-.14-1.04-.025zm30.725-.006c-.135.078-.154.443-.039.559.103.103 1.284.103 1.387 0 .128-.128.096-.488-.045-.565-.16-.083-1.162-.083-1.303.006z" fill="#211F1F"/></svg>