<svg width="30" height="33" fill="none" xmlns="http://www.w3.org/2000/svg"><path d="M13.696.547c-.644.106-1.837.5-2.425.793-1.374.694-2.68 1.881-3.53 3.206-.506.787-.962 1.93-1.187 2.98-.194.9-.194 2.612 0 3.493.381 1.755 1.13 3.155 2.33 4.392 1.3 1.337 2.775 2.143 4.618 2.537.93.2 2.562.2 3.48.006 1.756-.381 3.268-1.187 4.486-2.418 1.05-1.056 1.75-2.187 2.18-3.524.3-.93.413-1.68.413-2.718 0-1.443-.25-2.586-.818-3.78-1.262-2.65-3.662-4.48-6.517-4.973-.694-.12-2.306-.113-3.03.006zm1.98 3.586c.281.175.45.475.45.813v.28l.356.15c.7.307 1.394 1.157 1.394 1.706 0 .213-.188.581-.37.719-.436.337-1.099.137-1.386-.431-.156-.306-.438-.438-.937-.438-.375 0-.7.125-.769.294a1.459 1.459 0 00-.037.344c0 .212.03.268.237.406.125.087.5.262.825.387 1.374.525 1.912.912 2.268 1.637.181.369.2.463.2.944-.006.693-.169 1.124-.625 1.612-.294.318-.887.7-1.087.7-.038 0-.069.13-.069.3 0 .418-.169.7-.519.88-.356.175-.63.144-.924-.1a1.066 1.066 0 01-.369-.824c0-.238-.006-.25-.406-.431-.956-.45-1.58-1.575-1.18-2.118.224-.3.449-.425.761-.425.363 0 .631.175.838.55.187.337.468.48.943.48.575 0 .856-.206.856-.618 0-.337-.169-.45-1.343-.912-.9-.356-1.275-.588-1.668-1.025-.42-.462-.57-.893-.538-1.568.013-.45.05-.6.225-.95a2.377 2.377 0 011.162-1.118c.325-.138.35-.163.35-.369.006-.325.213-.731.45-.875a.915.915 0 01.912 0zm9.851 15.233a5.6 5.6 0 00-.53.232c-.12.056-1.038.924-2.038 1.918l-1.811 1.805.024.513c.032.637-.093 1.193-.4 1.805-.293.594-1.012 1.306-1.586 1.594-.781.387-.825.393-4.343.393-2.912 0-3.205-.012-3.405-.112a.882.882 0 010-1.587c.2-.1.493-.113 3.38-.113h3.162l.38-.193c.607-.3.944-.8 1-1.462a1.85 1.85 0 00-1.012-1.831l-.318-.169-2.375-.031c-1.412-.019-2.418-.056-2.48-.094a5.157 5.157 0 01-.488-.48c-.643-.707-1.561-1.05-2.811-1.05-1 0-1.862.25-2.506.724l-.306.225v10.991l5.799-.02 5.791-.018.532-.181c.662-.225 1.174-.475 1.655-.819.563-.406 7.86-7.747 8.023-8.072.731-1.462.156-3.162-1.306-3.855-.362-.169-.481-.194-1.062-.206-.519-.02-.719.006-.969.093zM1.306 21.322a.896.896 0 00-.363.369c-.125.237-.125.356-.125 5.136 0 5.454-.025 5.167.431 5.467.207.144.244.144 2.106.144h1.9V21.19H3.399c-1.73.006-1.88.012-2.093.131z" fill="#211F1F"/></svg>