<svg width="50" height="50" fill="none" xmlns="http://www.w3.org/2000/svg"><path d="M21.835.114C16.498.83 11.685 3.101 7.861 6.703l-.686.645v-1.07c0-1.341-.162-1.745-.858-2.078-.767-.373-1.473-.171-2.008.545-.202.263-.212.424-.242 3.471-.03 3.158-.02 3.209.202 3.643.414.807.464.817 4.167.817 3.047 0 3.249-.01 3.562-.202.958-.585.978-2.058.04-2.643-.303-.182-.565-.233-1.483-.283l-1.11-.05.898-.787c3.552-3.098 7.315-4.833 11.845-5.459 1.625-.232 4.268-.212 5.953.04 5.54.808 10.393 3.572 13.945 7.92 4.267 5.227 5.852 12.37 4.227 19.01-1.544 6.306-5.781 11.553-11.644 14.438-2.814 1.383-5.297 2.029-8.556 2.22-1.745.101-2.048.192-2.401.767-.262.434-.262 1.271.01 1.705.383.626.666.697 2.583.626 3.572-.121 7.002-1.04 10.282-2.735 2.421-1.26 4.207-2.583 6.205-4.59 3.743-3.754 6.023-8.173 6.982-13.5.202-1.15.232-1.615.232-4.168 0-2.572-.02-3.016-.232-4.167-.969-5.367-3.26-9.777-7.023-13.55C38.938 3.464 34.256 1.063 28.97.215c-1.433-.232-5.701-.293-7.134-.1z" fill="#151515"/><path d="M23.053 9.316c-7.123.918-12.743 6.508-13.681 13.6-.152 1.181-.06 4.178.161 5.197.908 4.187 3.29 7.709 6.76 10.01 1.695 1.13 3.41 1.846 5.52 2.32.907.202 1.311.232 3.208.232 2.432 0 3.3-.131 5.277-.817a15.685 15.685 0 009.656-9.818c.595-1.786.716-2.482.777-4.51.06-1.998-.02-2.876-.424-4.48-1.564-6.155-6.81-10.836-13.097-11.694-.736-.1-3.48-.131-4.157-.04zm2.573 6.407c.858.434.848.403.908 4.712l.05 3.783 2.029 1.16c1.11.646 2.139 1.252 2.3 1.353 1.19.787.676 2.613-.736 2.633-.424.01-.727-.141-3.33-1.645-2.129-1.24-2.906-1.735-3.047-1.967-.182-.293-.192-.585-.192-4.752 0-4.278.01-4.45.202-4.773.192-.323.868-.716 1.21-.726.092 0 .364.1.606.222zM1.618 17.54c-.586.302-.848.746-.828 1.422.03 1.524 2.058 2.048 2.845.757.273-.444.273-1.231 0-1.675-.222-.353-.877-.716-1.311-.727-.141 0-.464.101-.706.223zm-.952 6.124C.202 23.977 0 24.36 0 24.986c0 .958.555 1.513 1.513 1.513.959 0 1.514-.555 1.514-1.513 0-.959-.555-1.514-1.514-1.514-.373 0-.645.06-.847.192zm.851 6.084c-.525.363-.717.686-.727 1.26-.02.677.242 1.12.828 1.413.544.283.827.283 1.382.03 1.08-.484 1.15-2.088.11-2.724-.463-.282-1.16-.272-1.593.02zm2.421 5.61c-.525.292-.737.645-.787 1.301-.03.485 0 .646.201.928.646.949 1.928.939 2.644-.02.282-.383.282-1.271 0-1.654-.515-.687-1.382-.929-2.058-.555zm3.739 4.883c-1.412.737-.898 2.906.676 2.906.959 0 1.574-.615 1.574-1.574 0-.414-.05-.595-.272-.888-.343-.434-.535-.555-1.1-.626-.333-.04-.535 0-.878.182zm5.102 3.612c-.878.273-1.322 1.393-.878 2.22.525.999 1.998 1.1 2.643.192.323-.454.343-1.352.03-1.766-.443-.595-1.14-.848-1.795-.646zm5.315 2.523c-.354.221-.727.887-.727 1.311 0 .424.373 1.09.727 1.312.484.303 1.473.242 1.856-.101.797-.757.717-1.978-.181-2.523-.444-.272-1.231-.272-1.675 0z" fill="#151515"/></svg>