<svg width="46" height="47" fill="none" xmlns="http://www.w3.org/2000/svg"><path d="M33.875.618a1.651 1.651 0 00-.467.467c-.17.287-.18.476-.18 8.351v8.055l-2.056.027c-2.056.027-2.056.027-2.299.252-.53.494-.494-.494-.494 14.682v13.964h5.685c5.406 0 5.684-.009 5.936-.17.134-.09.332-.288.422-.423.161-.251.17-.691.17-13.865s-.009-13.614-.17-13.865c-.377-.566-.494-.593-2.542-.593h-1.867v-4.76h4.427c4.166 0 4.436-.017 4.795-.179.557-.251.763-.629.727-1.329l-.036-.566-1.472-1.472-1.473-1.482.36-.377c.96-1.015 2.352-2.569 2.487-2.766.098-.135.152-.395.152-.719 0-.556-.18-.898-.592-1.176-.243-.162-.503-.17-4.814-.17h-4.561v-.476c-.01-.602-.26-1.177-.647-1.41-.395-.243-1.096-.243-1.49 0zM18.994 6.113c-1.679.36-2.586.593-2.756.719-.764.538-.71 1.75.107 2.29.378.26.764.26 2.02-.018.54-.117.998-.207 1.007-.189.053.045-1.383 2.488-2.057 3.502-1.509 2.254-3 4.05-5.02 6.035-3.197 3.125-5.936 5.029-10.183 7.094-2.057.997-2.137 1.078-2.092 1.985.035.61.224.898.736 1.167.548.287 1.042.144 3.206-.934 2.927-1.455 4.975-2.757 7.4-4.705 4.166-3.35 7.516-7.373 10.219-12.285l.314-.575.566 1.114c.646 1.248.862 1.445 1.59 1.454.834.01 1.364-.52 1.364-1.364 0-.423-.125-.719-1.248-2.955C23 6.131 22.892 5.943 22.559 5.754c-.206-.117-.502-.198-.7-.189-.198 0-1.482.252-2.865.548zm-3.276 22.091a2.649 2.649 0 00-.485.458c-.188.252-.188.288-.215 9.007L15 46.416h10.776l-.018-8.747c-.027-8.72-.027-8.755-.215-9.007a2.649 2.649 0 00-.485-.458l-.297-.197h-8.746l-.297.197zM1.082 35.72c-.18.09-.395.324-.512.549l-.207.386v4.364c0 4.077.01 4.391.17 4.679.09.17.297.404.459.511l.296.207h11.109V41.45c0-4.786-.01-4.966-.18-5.253a1.654 1.654 0 00-.467-.467c-.287-.17-.467-.18-5.325-.18-4.733 0-5.047.01-5.343.17z" fill="#191717"/></svg>