<svg width="32" height="32" fill="none" xmlns="http://www.w3.org/2000/svg"><path d="M1.154 1.224L0 2.378l4.116 4.116 4.116 4.116H.03v10.664h7.08l4.41 4.409 4.414 4.415V18.312l3.742 3.741c2.058 2.058 3.742 3.755 3.742 3.773 0 .019-.3.225-.674.468-.81.524-1.958 1.116-2.744 1.403l-.573.212v1.896c0 1.77.006 1.89.112 1.858.056-.018.337-.087.624-.162 1.945-.486 3.635-1.328 5.55-2.756l.268-.2 1.727 1.728c.948.948 1.759 1.727 1.79 1.727.038 0 .58-.518 1.216-1.154l1.154-1.153-9.672-9.685c-5.32-5.32-11.943-11.98-14.718-14.792C4.702 2.403 2.407.096 2.37.083c-.031-.006-.58.505-1.216 1.141zm18.272.867v1.89l.536.206c3.549 1.34 6.48 4.346 7.627 7.826.461 1.397.63 2.45.63 3.96 0 1.39-.212 2.626-.686 4.022l-.187.562 1.322 1.322c.73.73 1.353 1.328 1.378 1.328.1 0 .78-1.528 1.029-2.307.549-1.697.723-2.938.723-5.02 0-1.622-.068-2.302-.336-3.536C30.189 6.544 25.787 1.91 20.099.383l-.673-.181v1.89zm-5.395 1.597l-1.87 1.87 1.889 1.89 1.883 1.884v-3.76c0-2.065-.006-3.755-.018-3.755-.007 0-.855.842-1.884 1.87zm5.395 7.159v1.977l2.201 2.201c1.204 1.204 2.22 2.195 2.251 2.195.106 0-.006-2.288-.15-2.95-.467-2.226-1.77-4.016-3.71-5.126-.274-.156-.517-.28-.542-.28-.031 0-.05.892-.05 1.983z" fill="#151515"/></svg>