<svg width="28" height="31" fill="none" xmlns="http://www.w3.org/2000/svg"><path d="M7.29 1.745C3.856 2.702.948 3.538.84 3.605c-.37.217-.46.514-.594 1.901-.624 6.379-.042 12.188 1.57 15.829.738 1.666 1.829 3.15 3.549 4.834 2.144 2.09 4.919 3.786 7.62 4.652.715.23 1.03.236 1.684.03 2.732-.86 5.537-2.568 7.706-4.682 1.72-1.684 2.81-3.168 3.55-4.834 1.61-3.64 2.192-9.45 1.568-15.829-.139-1.435-.224-1.696-.636-1.914C26.47 3.38 14.19-.006 13.832 0c-.193 0-2.465.606-6.542 1.745zm13.218 7.093c.23.09 1.4 1.248 1.545 1.527a.924.924 0 01.054.757c-.036.097-2.023 2.126-4.5 4.61-4.762 4.76-4.592 4.616-5.12 4.518-.193-.036-.569-.381-3.028-2.834-1.545-1.533-2.847-2.866-2.896-2.957-.115-.218-.109-.617.013-.866.048-.109.387-.49.745-.836.739-.72.95-.83 1.417-.702.218.06.503.315 2.102 1.908l1.854 1.841 3.325-3.337c1.836-1.836 3.453-3.417 3.599-3.514.29-.188.593-.224.89-.115z" fill="#211F1F"/></svg>