<svg width="28" height="31" fill="none" xmlns="http://www.w3.org/2000/svg"><path d="M6.942 3.742C2.455 6.26.245 7.538.16 7.647c-.181.242-.181.848 0 1.102.097.133 1.865 1.156 6.794 3.923 6.436 3.61 6.672 3.736 6.975 3.736.309 0 .539-.127 6.975-3.736 4.946-2.779 6.69-3.784 6.787-3.923.188-.254.188-.836 0-1.09-.097-.14-1.84-1.144-6.787-3.923C14.364.066 14.238 0 13.923 0c-.321.006-.509.109-6.981 3.742z" fill="#211F1F"/><path d="M2.074 13.774C1.166 14.283.366 14.75.3 14.81c-.406.363-.4 1.023.018 1.392.073.067 3.094 1.786 6.709 3.815 6.472 3.633 6.575 3.687 6.902 3.687.327 0 .43-.054 6.902-3.687 3.615-2.029 6.636-3.748 6.709-3.815a.9.9 0 00.315-.702.891.891 0 00-.315-.702c-.164-.152-3.318-1.926-3.409-1.92-.03 0-2.101 1.15-4.602 2.555-2.494 1.405-4.674 2.592-4.837 2.64-.412.121-1.2.115-1.58-.018-.23-.079-8.065-4.426-9.204-5.098l-.181-.109-1.653.926zm4.28 2.083c.545.388.545 1.078.007 1.441-.37.255-.933.133-1.181-.248-.497-.757.454-1.72 1.174-1.193zm15.96-.054a.851.851 0 01.073 1.513c-.496.31-1.174-.006-1.29-.593-.096-.478.352-1.005.879-1.035.048-.006.2.048.339.115zm-12.127 2.276c.581.297.575 1.205-.012 1.508-.285.145-.684.115-.908-.067-.466-.393-.485-.932-.043-1.344.267-.248.588-.284.963-.097zm8.343.018c.533.376.557 1 .061 1.423-.34.285-.932.188-1.199-.193-.357-.497-.145-1.108.454-1.314.26-.091.466-.067.684.084zm-4.105 2.138c.236.163.351.412.351.745 0 .236-.03.314-.236.532-.23.248-.254.255-.611.255s-.382-.006-.612-.255c-.206-.218-.236-.296-.236-.532 0-.436.255-.794.636-.897.194-.048.527.019.708.152z" fill="#211F1F"/><path d="M1.977 21.119C.935 21.706.239 22.142.16 22.245c-.181.236-.181.841 0 1.096.097.133 1.865 1.156 6.794 3.923C13.39 30.873 13.626 31 13.929 31c.309 0 .539-.127 6.975-3.736 4.946-2.779 6.69-3.784 6.787-3.923.188-.255.188-.836.006-1.09-.09-.127-.666-.478-1.828-1.138-.933-.521-1.708-.95-1.726-.95-.018 0-2.034 1.12-4.474 2.494-2.44 1.368-4.596 2.56-4.79 2.64a2.588 2.588 0 01-1.556.108c-.43-.108-.35-.066-5.921-3.19-2.004-1.133-3.67-2.053-3.694-2.053-.024.006-.805.436-1.731.957z" fill="#211F1F"/></svg>