<svg width="46" height="49" fill="none" xmlns="http://www.w3.org/2000/svg"><path d="M27.077.571c-2.444.73-4.28 2.677-4.817 5.1-.223.995-.162 2.749.122 3.641l.193.609-.325.963c-.578 1.673-.953 3.377-1.42 6.378l-.06.345-.254-.446c-.253-.436-.263-.507-.274-2.373-.02-1.612-.06-2.048-.233-2.707-1.308-4.695-5.324-7.788-10.12-7.788-1.065 0-2.626.243-2.961.466-.436.274-.588 1.106-.588 3.134 0 1.592.03 1.936.233 2.687.487 1.774 1.46 3.478 2.718 4.735 1.673 1.674 3.823 2.688 6.317 2.972.953.111 2.393.04 3.205-.163.162-.04.263.061.517.487.74 1.237 1.095 2.83 1.217 5.374l.06 1.501h-5.08l.406.69c1.866 3.184 1.713 6.764-.386 9.329-.618.75-1.622 1.5-2.85 2.12-1.439.72-2.22 1.43-2.798 2.545-.355.679-1.328 3.133-1.45 3.63-.04.172.101.324.7.76a22.687 22.687 0 0011.022 4.35c1.42.173 5.02.082 6.298-.151 2.393-.426 4.603-1.167 6.611-2.19.791-.417 2.373-1.37 2.606-1.573.02-.02-.274-.365-.649-.77-2.089-2.282-3.397-5.435-3.397-8.234-.01-1.653-.436-2.82-1.247-3.428-.629-.456-1.065-.628-3.052-1.196-2.292-.66-2.961-.974-3.823-1.826-.77-.77-1.055-1.379-1.217-2.677-.304-2.332.568-5.394 1.927-6.875l.466-.497.71.345c4.502 2.22 9.968.913 12.95-3.113 1.125-1.511 1.865-3.468 1.977-5.182l.06-.923-.344-.294c-.457-.385-1.755-.983-2.88-1.328-.852-.264-1.035-.284-2.789-.284-1.673-.01-1.967.02-2.738.233-3.66 1.024-6.45 3.833-7.392 7.453-.122.447-.213.913-.213 1.045 0 .122-.152.375-.325.558-.182.182-.547.588-.81.892-.488.558-.488.558-.488.253 0-1.084.619-4.715 1.075-6.317.436-1.541.65-2.048.893-2.089.111-.02.507-.081.872-.142 2.17-.335 4.137-1.856 5.08-3.934.487-1.065.629-1.856.568-3.184-.05-1.288-.375-2.454-.791-2.9-.213-.224-.304-.244-1.247-.234-.75 0-1.227.061-1.785.223z" fill="#191717"/><path d="M.203 25.689C.02 25.872 0 26.024 0 26.997c0 3.691 1.217 7.798 3.326 11.205 1.065 1.724 3.519 4.695 3.793 4.604.05-.02.324-.618.588-1.328.618-1.602 1.085-2.495 1.703-3.245.67-.811 1.207-1.217 2.606-1.927 1.014-.517 1.35-.75 1.988-1.39 1.186-1.186 1.714-2.463 1.714-4.167 0-1.531-.599-3.255-1.623-4.685l-.416-.578H7.037c-6.5 0-6.631 0-6.834.203zm23.561.679c.081 1.339.416 2.008 1.278 2.556.578.375.993.527 2.697.983 2.2.599 3.255 1.106 4.087 1.957.872.903 1.196 1.876 1.338 4.118.193 3.001 1.146 5.252 3.123 7.351l.68.73.862-.75c3.265-2.86 5.82-7.007 6.885-11.154.456-1.785.629-2.941.69-4.655.06-1.52.05-1.592-.163-1.805l-.213-.213H23.703l.061.882z" fill="#191717"/></svg>