<svg width="44" height="44" fill="none" xmlns="http://www.w3.org/2000/svg"><path d="M24.376 1.088a5.936 5.936 0 00-.759.37c-.395.248-1.038.957-1.31 1.46-.116.222-.833 2.003-1.575 3.956-.75 1.954-1.459 3.751-1.582 3.998-.981 1.93-3.174 4.303-6.158 6.67a2.334 2.334 0 00-.89 1.833v20.339c0 .682.444 1.285 1.096 1.486 2.58.816 4.896 1.319 7.971 1.706 1.369.173 14.681.264 15.415.107 1.517-.338 2.894-1.698 3.248-3.215.24-.98.132-2.077-.28-2.934a2.467 2.467 0 01-.165-.38c0-.024.157-.14.354-.255.511-.297 1.237-1.105 1.542-1.698.28-.57.495-1.402.495-1.987 0-.569-.215-1.442-.479-1.978a.666.666 0 01.169-.82l.004-.005c1.616-1.31 2.078-3.495 1.154-5.44-.14-.297-.445-.684-.881-1.113l-.312-.304a.692.692 0 01-.134-.809c.256-.503.479-1.41.479-1.978 0-1.962-1.468-3.792-3.397-4.246-.428-.099-1.376-.123-5.317-.123-2.646 0-4.806-.017-4.806-.033 0-.017.091-.487.207-1.047.774-3.776 1.154-7.543.948-9.39-.28-2.571-.99-3.692-2.647-4.212-.733-.23-1.788-.214-2.39.042zM1.839 19.445a1.404 1.404 0 00-.52.264c-.453.42-.428-.132-.428 10.18v9.216c0 .22.066.436.19.619.387.577.304.569 4.698.569a3.932 3.932 0 003.932-3.932V23.122a3.759 3.759 0 00-3.767-3.759c-2.077.008-3.924.041-4.105.082z" fill="#000"/></svg>