<svg width="50" height="50" fill="none" xmlns="http://www.w3.org/2000/svg"><path d="M27.82.241a7.035 7.035 0 00-.898.44c-.468.293-1.23 1.132-1.552 1.728-.137.264-.986 2.373-1.865 4.687-.889 2.314-1.729 4.443-1.875 4.736-1.162 2.285-3.76 5.097-7.294 7.9l-1.055.83v26.794l1.299.4c3.056.967 5.8 1.563 9.442 2.022 1.621.205 17.391.312 18.26.126 1.797-.4 3.428-2.011 3.848-3.808.283-1.162.156-2.46-.332-3.476-.108-.215-.196-.42-.196-.45 0-.029.186-.165.42-.302.606-.351 1.465-1.308 1.826-2.011.332-.674.586-1.66.586-2.354 0-.673-.254-1.709-.566-2.343l-.293-.567.498-.41c1.914-1.552 2.46-4.14 1.367-6.444-.166-.352-.527-.81-1.045-1.319l-.8-.78.273-.538c.302-.596.566-1.67.566-2.343 0-2.324-1.738-4.492-4.023-5.03-.508-.116-1.63-.146-6.298-.146-3.135 0-5.693-.02-5.693-.039 0-.02.107-.576.244-1.24.918-4.472 1.367-8.934 1.123-11.122-.332-3.046-1.172-4.374-3.134-4.99-.87-.273-2.12-.253-2.832.05zM1.123 21.987a1.662 1.662 0 00-.615.313C-.029 22.798 0 22.143 0 34.36v11.316l.225.332c.459.684.361.674 5.566.674h4.657V21.88l-4.462.01c-2.46.01-4.648.049-4.863.097z" fill="#151515"/></svg>