<svg width="50" height="50" fill="none" xmlns="http://www.w3.org/2000/svg"><path d="M14.132.176c-.459.293-.654.645-.947 1.739-.674 2.47-1.622 4.297-3.253 6.24-2.012 2.394-4.766 4.103-8.029 4.973-1.035.283-1.465.546-1.719 1.084-.244.488-.244.85-.01 1.367.235.508.596.791 1.27.977 2.325.635 4.171 1.455 5.685 2.54 3.077 2.197 5.245 5.498 6.241 9.483.274 1.085 1.446 1.612 2.384 1.075.556-.313.713-.586 1.035-1.807.693-2.588 1.934-4.835 3.711-6.69 2.257-2.374 4.415-3.615 8.049-4.61 1.27-.352 1.787-1.603 1.064-2.57-.351-.469-.576-.586-1.748-.898-5.665-1.524-9.884-5.93-11.262-11.77-.205-.86-.8-1.328-1.69-1.309-.312 0-.624.069-.78.176zm23.609 15.97c-.42.185-.8.674-.928 1.162-.967 3.829-3.594 6.564-7.237 7.54-.967.254-1.319.498-1.602 1.075-.186.41-.186.82.01 1.309.215.547.625.82 1.67 1.113 1.846.527 3.145 1.3 4.473 2.647 1.31 1.319 2.032 2.569 2.54 4.425.361 1.26.82 1.719 1.758 1.719.86 0 1.407-.498 1.66-1.485.9-3.555 3.526-6.28 7.033-7.286 1.055-.303 1.455-.557 1.71-1.084.253-.508.243-.88-.02-1.407-.303-.576-.577-.752-1.602-1.035-3.37-.938-5.939-3.438-6.925-6.73-.362-1.23-.479-1.455-.88-1.768-.42-.322-1.19-.41-1.66-.195zM17.865 33.121c-.479.333-.664.626-.89 1.446a7.488 7.488 0 01-5.215 5.177c-1.113.312-1.612.83-1.612 1.68 0 .957.44 1.397 1.837 1.836 2.461.781 4.16 2.471 4.913 4.913.43 1.387.879 1.826 1.836 1.826.879 0 1.367-.459 1.69-1.592.752-2.646 2.588-4.473 5.284-5.235 1.055-.303 1.543-.82 1.553-1.67 0-.948-.41-1.358-1.866-1.856-1.318-.45-1.982-.83-2.871-1.66-1.075-1.006-1.651-1.964-2.11-3.526-.332-1.104-.83-1.553-1.748-1.553-.332 0-.577.068-.801.215z" fill="#151515"/></svg>