<svg width="46" height="47" fill="none" xmlns="http://www.w3.org/2000/svg"><path d="M17.427.193a2.15 2.15 0 00-.992 1.047c-.064.147-.294 1.551-.514 3.112l-.404 2.828-.735.368c-.404.202-1.083.597-1.506.872l-.78.505L9.824 7.86C7.482 6.923 7.078 6.795 6.61 6.795c-.615 0-1.166.22-1.533.615-.202.22-4.206 7.061-4.858 8.3-.284.542-.293 1.433-.018 1.966.248.477.33.55 2.782 2.451l2.066 1.607-.009 1.781-.01 1.773-1.918 1.506C.486 28.84.44 28.887.21 29.319c-.266.523-.266 1.432-.009 1.946.432.836 4.554 7.925 4.793 8.218.367.469.946.735 1.607.735.477 0 .863-.129 3.223-1.065l2.681-1.065.588.395c.321.22 1 .615 1.506.881l.918.468.422 2.948c.468 3.278.514 3.416 1.295 3.93l.386.257 5.096.027c3.296.019 5.215-.009 5.426-.064.45-.138.964-.578 1.185-1.038.128-.275.294-1.184.56-3.057.202-1.47.386-2.746.413-2.847.028-.128.257-.294.707-.505.367-.174 1.038-.56 1.488-.863l.826-.532 2.69 1.074c2.24.89 2.773 1.065 3.177 1.065.643 0 1.194-.23 1.561-.652.24-.275 4.243-7.116 4.895-8.356.238-.459.22-1.395-.037-1.9-.23-.441-.395-.588-2.948-2.571l-1.864-1.46v-3.563l1.91-1.497c2.617-2.047 2.672-2.093 2.902-2.534.284-.542.275-1.432-.019-1.992-.56-1.093-4.637-8.072-4.857-8.301-.358-.386-.89-.606-1.515-.606-.487 0-.854.12-3.195 1.056-2.232.89-2.682 1.037-2.847.955a17.212 17.212 0 01-.845-.533c-.367-.23-.964-.57-1.322-.744-.45-.21-.68-.376-.707-.505-.018-.1-.211-1.386-.422-2.846-.202-1.47-.432-2.791-.496-2.938A2.114 2.114 0 0028.39.193C28.005.009 27.867 0 22.9 0c-4.987 0-5.097 0-5.473.193zm7.364 15.784c2.782.716 4.894 2.819 5.656 5.647.156.57.202.992.202 1.882 0 .891-.046 1.313-.202 1.883-.762 2.819-2.837 4.894-5.656 5.656-1.038.285-2.727.285-3.765 0-2.819-.762-4.903-2.837-5.656-5.656-.275-1.029-.275-2.737 0-3.765 1.12-4.196 5.307-6.703 9.42-5.647z" fill="#191717"/></svg>