<svg width="32" height="32" fill="none" xmlns="http://www.w3.org/2000/svg"><path d="M23.927.033c-8.003.41-15.03 3.327-20.043 8.31C1.979 10.241.711 12.616.169 15.276.022 16.009 0 16.33 0 17.767c0 1.43.022 1.76.169 2.485.359 1.78 1.091 3.554 2.051 4.998.499.747 1.444 1.898 1.59 1.949.045.007.213-.374.382-.85a35.827 35.827 0 011.473-3.415c.952-1.898 2.719-4.229 4.565-6.01.968-.93 2.653-2.286 3.694-2.96.857-.557 2.088-1.224 2.088-1.129 0 .03-.652 1.041-1.45 2.235-1.774 2.675-2.712 4.163-3.313 5.262-.623 1.136-1.759 3.29-1.759 3.335 0 .022-.212.432-.476.923a23.445 23.445 0 00-.799 1.627c-.176.41-.572 1.319-.88 2.023-.307.696-.534 1.297-.512 1.333.058.096.923.528 1.67.828 2.976 1.195 6.354 1.32 9.388.33.93-.308 2.587-1.15 3.408-1.73 1.722-1.23 3.73-3.656 4.72-5.693.886-1.832 1.208-3.305 1.362-6.273.235-4.522.337-5.592.733-7.549.528-2.616 1.51-5.503 2.814-8.31.183-.403.33-.733.323-.74-.044-.044-1.767-.257-2.55-.323-1.283-.11-3.496-.146-4.764-.08z" fill="#151515"/></svg>