<svg width="31" height="32" fill="none" xmlns="http://www.w3.org/2000/svg"><path d="M22.84.335a1.114 1.114 0 00-.316.314c-.115.194-.12.321-.12 5.632v5.433l-1.387.018c-1.387.018-1.387.018-1.55.17-.358.332-.334-.334-.334 9.9v9.418h3.834c3.645 0 3.833-.006 4.003-.115.09-.06.224-.194.284-.285.11-.17.115-.466.115-9.35s-.006-9.181-.115-9.35c-.254-.382-.333-.4-1.714-.4h-1.26V8.51h2.986c2.81 0 2.992-.012 3.234-.121.376-.17.515-.424.49-.896l-.024-.382-.993-.993-.993-1 .242-.254C29.87 4.18 30.81 3.132 30.9 3c.066-.09.103-.266.103-.484 0-.376-.121-.606-.4-.794-.163-.109-.34-.115-3.246-.115h-3.076v-.32c-.006-.406-.176-.794-.436-.951-.267-.164-.74-.164-1.006 0zM12.801 4.04c-1.132.243-1.744.4-1.859.485-.514.364-.478 1.181.073 1.544.254.176.515.176 1.362-.012.364-.078.673-.139.679-.127.036.03-.933 1.678-1.387 2.362a24.55 24.55 0 01-3.385 4.07c-2.156 2.107-4.003 3.39-6.868 4.784-1.386.672-1.441.726-1.41 1.338.024.412.15.606.496.787.37.194.702.097 2.162-.63 1.974-.98 3.355-1.859 4.99-3.173 2.81-2.259 5.069-4.972 6.892-8.284l.212-.388.381.751c.436.842.581.975 1.072.981.563.006.92-.351.92-.92 0-.285-.084-.485-.841-1.993-.788-1.562-.86-1.69-1.084-1.816a1.006 1.006 0 00-.473-.128c-.133 0-.999.17-1.932.37zm-2.215 14.898c-.109.08-.26.218-.327.31-.127.169-.127.193-.145 6.073l-.012 5.899h7.267l-.012-5.899c-.019-5.88-.019-5.904-.146-6.074a1.784 1.784 0 00-.327-.309l-.2-.133h-5.899l-.199.133zM.719 24.007a.931.931 0 00-.345.37l-.14.26v2.943c0 2.75.006 2.962.115 3.155.061.115.2.273.31.345l.2.14h7.49v-3.35c0-3.227-.006-3.348-.12-3.542a1.114 1.114 0 00-.316-.315c-.194-.115-.315-.12-3.59-.12-3.192 0-3.404.005-3.604.114z" fill="#191717"/></svg>