<svg width="68" height="64" fill="none" xmlns="http://www.w3.org/2000/svg"><path d="M48.566.077c-3.738.423-7.674 1.881-10.47 3.856-1.418 1.007-4.823 4.36-6.056 5.963-.887 1.14-3.021 4.333-3.021 4.492 0 .053-.358.133-.795.172-1.325.12-2.147.822-2.372 2.028-.133.702.053 1.51.477 2.133l.265.371-6.255 13.715c-4.439 9.74-6.307 13.702-6.44 13.675-.106-.026-.503-.053-.887-.04-2.306.027-3.353 2.743-1.683 4.347l.583.556-1.339 2.916-1.338 2.928H5.592c-3.459 0-3.684.014-4.24.279C.49 57.89 0 58.726 0 59.76c0 1.087.424 1.789 1.352 2.253l.689.344h6.625c4.161 0 6.825-.053 7.13-.132 1.775-.504 2.398-2.836 1.126-4.227-.345-.371-1.233-.795-1.657-.809-.172 0-.291-.053-.265-.106.027-.066.398-.9.822-1.855.782-1.696.795-1.736 1.166-1.656.61.119 1.564-.226 2.094-.756.543-.543.861-1.497.715-2.173-.119-.583-.53-1.352-.835-1.563-.238-.173.067-.875 6.003-13.914l6.241-13.742.69.08c2.292.252 3.75-2.213 2.411-4.055-.212-.305-.45-.543-.517-.543-.08 0-.132-.053-.132-.12 0-.172 1.497-2.411 2.425-3.657 1.06-1.404 3.763-4.094 4.93-4.903 2.928-2.014 6.254-3.034 9.938-3.034 2.756.013 4.306.37 6.493 1.497 1.749.901 3.14 2.306 3.949 3.989.848 1.802 1.073 2.875 1.285 6.241.291 4.823-.41 8.428-1.988 10.23l-.53.596v2.796c0 2.306.027 2.796.186 2.796.106 0 .729-.265 1.378-.596 3.379-1.696 5.406-5.168 6.003-10.296.198-1.842.092-7.355-.2-9.183-.595-3.71-2-6.533-4.412-8.812-2.266-2.147-4.863-3.446-8.242-4.121-1.497-.292-4.77-.424-6.307-.252z" fill="#333"/><path d="M49.293 24.843c-3.591.769-6.97 2.545-9.594 5.062-3.34 3.18-5.5 7.063-6.838 12.27-.543 2.108-2.822 16.631-2.73 17.426.146 1.299 1.167 2.531 2.227 2.69.318.04 3.207.066 6.44.04l5.87-.04-.358-.464c-.543-.728-1.457-2.743-1.722-3.843-.331-1.378-.305-3.55.066-4.969 1.577-6.055 7.884-9.593 13.702-7.699a29.9 29.9 0 011.192.411c.212.093.226-.437.2-10.481l-.04-10.588-3.645-.027c-3.074-.013-3.816.014-4.77.212z" fill="#333"/><path d="M51.866 47.25c-3.114.451-5.778 2.717-6.758 5.739-.305.927-.358 1.311-.358 2.61 0 1.352.04 1.656.398 2.663.954 2.743 2.981 4.665 5.817 5.5.967.291 3.127.318 4.16.066 2.452-.623 4.559-2.319 5.62-4.559.609-1.298.794-2.173.794-3.736 0-4.227-3.034-7.686-7.261-8.269-1.127-.159-1.405-.159-2.412-.013zm3.06 4.678c.796.398 1.525 1.14 1.949 1.948.45.862.437 2.584-.013 3.472-.385.755-1.206 1.577-2.001 1.988-.862.437-2.584.437-3.446 0-2.57-1.339-3.153-4.519-1.206-6.56 1.246-1.285 3.18-1.643 4.718-.848z" fill="#333"/></svg>