<svg width="38" height="38" fill="none" xmlns="http://www.w3.org/2000/svg"><path d="M18.435.705c-.557.34-.6.499-.6 2.494 0 1.639.018 1.813.167 2.063.25.399.624.599 1.165.599.54 0 .914-.2 1.164-.6.15-.249.166-.423.166-2.062 0-1.638-.017-1.812-.166-2.062-.25-.4-.624-.599-1.165-.599-.307 0-.548.05-.731.167zM6.62 5.611c-.615.141-1.022.674-1.022 1.322 0 .216.058.508.124.64.067.134.649.749 1.281 1.381.948.94 1.206 1.14 1.464 1.19 1.09.207 1.887-.591 1.68-1.672-.042-.258-.267-.524-1.19-1.472-.623-.632-1.23-1.206-1.347-1.264a1.56 1.56 0 00-.99-.125zm24.484 0c-.416.091-.54.191-1.722 1.389-.923.948-1.147 1.214-1.189 1.472-.208 1.08.59 1.88 1.68 1.671.258-.05.516-.25 1.464-1.189.632-.632 1.214-1.247 1.28-1.38.167-.316.167-.948 0-1.264a1.362 1.362 0 00-1.513-.699zM18.126 7.524a11.668 11.668 0 00-10.478 9.671c-.175 1.032-.175 2.936-.009 3.884.3 1.663.932 3.26 1.846 4.632.533.798 1.639 1.996 2.42 2.611.832.665.882.807.932 2.736.058 1.796.091 1.93.615 2.245.258.158.458.167 5.713.167 5.256 0 5.456-.009 5.713-.167.524-.316.558-.449.616-2.245.05-1.93.1-2.07.931-2.736 1.24-.981 2.47-2.503 3.177-3.917.823-1.638 1.123-2.869 1.18-4.831.06-1.714-.066-2.662-.523-4.059-1.514-4.623-5.688-7.767-10.636-8.016a12.876 12.876 0 00-1.497.025zm-2.47 12.166c.25.116.416.457.765 1.497.316.973.649 1.488 1.19 1.863.498.34.864.44 1.571.44.956 0 1.78-.424 2.237-1.155.133-.2.374-.782.54-1.29.383-1.13.65-1.463 1.198-1.463.283 0 .4.05.632.283.225.224.283.349.283.615 0 .358-.466 1.788-.79 2.428-.5.982-1.555 1.905-2.587 2.246l-.532.183v1.505c0 .832-.041 1.655-.083 1.821a.942.942 0 01-1.83 0c-.041-.166-.083-.99-.083-1.813v-1.505l-.515-.191c-.757-.275-1.206-.558-1.772-1.123-.582-.582-.906-1.164-1.322-2.353-.474-1.373-.374-1.863.45-2.121.149-.05.382 0 .648.133zM1.138 18.002c-.4.25-.599.623-.599 1.164 0 .54.2.915.599 1.164.25.15.424.167 2.062.167 1.996 0 2.154-.042 2.495-.6.225-.373.225-1.089 0-1.463-.341-.557-.499-.599-2.495-.599-1.638 0-1.813.017-2.062.167zm31.933 0c-.399.25-.598.623-.598 1.164 0 .54.2.915.598 1.164.25.15.425.167 2.063.167 1.638 0 1.813-.017 2.062-.167.4-.25.599-.623.599-1.164 0-.54-.2-.915-.599-1.164-.25-.15-.424-.166-2.062-.166-1.639 0-1.813.016-2.063.166zM14.176 35.69c0 1.015.108 1.306.598 1.605.267.158.433.166 4.391.166 3.959 0 4.125-.008 4.391-.166.49-.3.599-.59.599-1.605v-.89h-9.98v.89z" fill="#1F1D1D"/></svg>