<svg width="9" height="45" fill="none" xmlns="http://www.w3.org/2000/svg"><path d="M.773.179C.283.481.038.905 0 1.555c-.01.31.292 7.417.67 15.795.782 16.925.678 15.69 1.413 16.18.377.255.415.255 1.95.255 1.537 0 1.575 0 1.951-.254.736-.49.632.744 1.414-16.181.377-8.378.679-15.494.66-15.805-.02-.461-.085-.65-.283-.923C7.295 0 7.295 0 4.015 0 1.282 0 1.046.01.773.179zm2.402 38.488c-1.027.292-1.884 1.093-2.214 2.064-.226.669-.217 1.593.019 2.233.226.641.933 1.442 1.583 1.782.433.226.575.254 1.47.254s1.037-.028 1.46-.254c.642-.34 1.207-.952 1.518-1.63.716-1.556-.028-3.525-1.583-4.242-.65-.292-1.621-.386-2.253-.207z" fill="#151515"/></svg>