<svg width="18" height="13" fill="none" xmlns="http://www.w3.org/2000/svg"><path d="M1.097.057C.995.089.91.127.91.145c0 .021 1.752 1.79 3.898 3.937L8.703 7.98l.169.024c.39.053.088.324 4.348-3.943C15.352 1.925 17.094.163 17.094.145c0-.018-.092-.06-.204-.092-.187-.052-.887-.056-7.91-.052-6.842.003-7.722.007-7.883.056zM.08 1.025c-.064.144-.067.37-.078 5.231-.007 4.44 0 5.105.046 5.26.028.098.067.204.088.232.028.042.584-.496 2.769-2.68L5.642 6.33 2.915 3.604A266.511 266.511 0 00.168.877c-.014 0-.053.067-.088.148zm15.006 2.578L12.359 6.33l2.738 2.737c2.184 2.185 2.74 2.723 2.768 2.681.021-.028.06-.134.088-.232.046-.155.053-.82.046-5.26-.01-4.862-.014-5.087-.077-5.231-.036-.081-.074-.148-.088-.148-.01 0-1.25 1.228-2.748 2.726z" fill="#3F3F40"/><path d="M3.609 9.778C2.124 11.266.91 12.498.91 12.515c0 .018.092.06.204.092.187.052.89.056 7.888.056 6.997 0 7.701-.004 7.888-.056.112-.032.204-.074.204-.092 0-.018-1.218-1.252-2.706-2.748l-2.705-2.716-.859.848c-.724.721-.89.866-1.083.957a1.658 1.658 0 01-1.474.004c-.197-.095-.36-.236-1.08-.954-.465-.46-.855-.837-.866-.837-.007 0-1.231 1.217-2.712 2.709z" fill="#3F3F40"/></svg>