<svg width="16" height="23" fill="none" xmlns="http://www.w3.org/2000/svg"><path d="M4.89.834c-.058.084-.066.597-.066 4.665v4.572H.995l-.1.105c-.232.231-.417.021 3.63 4.073 3.388 3.387 3.749 3.736 3.87 3.736.123 0 .484-.35 3.871-3.736 4.047-4.052 3.862-3.842 3.631-4.073l-.1-.105h-3.829V5.5c0-4.068-.008-4.58-.067-4.665l-.063-.092H4.954l-.063.092zm-3.634 18.76c-.084.11-.088.164-.088 1.303s.004 1.198.084 1.277c.084.085.139.085 7.144.085 7.006 0 7.06 0 7.145-.085.08-.08.084-.138.084-1.277 0-1.139-.005-1.194-.088-1.303l-.085-.11H1.34l-.084.11z" fill="#FEA60E"/></svg>