<svg width="17" height="19" fill="none" xmlns="http://www.w3.org/2000/svg"><path d="M1.177.076C.71.247.367.562.142 1.026c-.099.198-.126.328-.14.675-.017.472.059.783.27 1.098.064.09 1.522 1.63 3.241 3.42 2.453 2.557 3.137 3.29 3.16 3.403.013.081.027 1.85.027 3.934 0 3.591.004 3.794.085 3.965.18.392.563.621 1.017.621.324-.004.414-.045 1.256-.576.662-.423.923-.666 1.098-1.049l.122-.256.022-3.353.023-3.353.112-.14c.063-.076 1.477-1.562 3.146-3.299 1.67-1.733 3.083-3.227 3.146-3.317.212-.315.288-.626.27-1.098-.013-.356-.04-.473-.148-.698a2.02 2.02 0 00-.855-.86l-.27-.13L8.568.004C1.68-.005 1.402-.005 1.178.076z" fill="#151515"/></svg>