<svg width="38" height="38" fill="none" xmlns="http://www.w3.org/2000/svg"><path d="M16.759.082c-2.078.192-4.373.844-6.32 1.8C6.622 3.76 3.762 6.62 1.884 10.436a18.549 18.549 0 000 16.292c1 2.016 2.017 3.442 3.608 5.024 1.452 1.452 2.869 2.478 4.73 3.417 6.432 3.269 14.23 2.469 19.96-2.052.79-.617 2.32-2.147 2.938-2.938 2.903-3.669 4.355-8.39 3.998-12.927-.121-1.443-.365-2.86-.565-3.251-.173-.33-.652-.774-.956-.887-.67-.252-1.678-.044-2.112.443-.522.565-.6 1.148-.348 2.46.2 1.061.278 3.008.148 4.086-.444 3.756-2.182 7.137-4.877 9.502-4.643 4.06-11.102 4.912-16.448 2.174-7.39-3.782-10.284-12.701-6.494-19.97 1.2-2.294 2.808-4.094 4.946-5.52 3.678-2.468 8.207-3.13 12.51-1.834.757.226 1.487.278 1.86.14.348-.14.861-.635 1.026-1.01a1.865 1.865 0 00-.39-2.094c-.296-.304-.505-.409-1.226-.635-2.33-.739-4.964-1.008-7.433-.774z" fill="#87CB76"/><path d="M32.67 3.855c-.2.079-3.043 2.87-8.102 7.929l-7.807 7.798-2.19-2.191c-2.356-2.339-2.617-2.538-3.4-2.547-1.425-.009-2.312 1.452-1.669 2.747.278.565 5.92 6.216 6.407 6.424.461.183 1.243.165 1.67-.043.243-.113 3.12-2.939 8.927-8.754 6.972-6.981 8.598-8.65 8.685-8.92.174-.556.078-1.373-.209-1.79-.478-.679-1.538-.983-2.312-.653z" fill="#87CB76"/></svg>