<svg width="38" height="38" fill="none" xmlns="http://www.w3.org/2000/svg"><path d="M16.759.92c-2.078.192-4.373.844-6.32 1.8-3.817 1.878-6.677 4.738-8.555 8.555a18.549 18.549 0 000 16.291c1 2.017 2.017 3.443 3.608 5.025 1.452 1.452 2.869 2.477 4.73 3.416 6.432 3.269 14.23 2.47 19.96-2.051.79-.618 2.32-2.148 2.938-2.939 2.903-3.668 4.355-8.389 3.998-12.927-.121-1.443-.365-2.86-.565-3.251-.173-.33-.652-.774-.956-.887-.67-.252-1.678-.043-2.112.444-.522.565-.6 1.147-.348 2.46.2 1.06.278 3.008.148 4.086-.444 3.755-2.182 7.137-4.877 9.502-4.643 4.06-11.102 4.911-16.448 2.173-7.39-3.782-10.284-12.701-6.494-19.969 1.2-2.295 2.808-4.094 4.946-5.52 3.678-2.469 8.207-3.13 12.51-1.834.757.226 1.487.278 1.86.139.348-.14.861-.635 1.026-1.009a1.865 1.865 0 00-.39-2.095c-.296-.304-.505-.408-1.226-.634-2.33-.74-4.964-1.009-7.433-.774z" fill="#FEA60E"/><path d="M32.67 4.694c-.2.078-3.043 2.869-8.102 7.928L16.76 20.42l-2.19-2.19c-2.356-2.34-2.617-2.54-3.4-2.548-1.425-.009-2.312 1.452-1.669 2.747.278.565 5.92 6.216 6.407 6.425.461.182 1.243.165 1.67-.044.243-.113 3.12-2.938 8.927-8.754 6.972-6.98 8.598-8.65 8.685-8.92.174-.556.078-1.373-.209-1.79-.478-.678-1.538-.983-2.312-.652z" fill="#FEA60E"/></svg>