<svg width="19" height="18" fill="none" xmlns="http://www.w3.org/2000/svg"><path d="M7.11.038a8.099 8.099 0 102.588 15.98 8.378 8.378 0 002.87-1.198c.256-.172.484-.332.5-.358.017-.025.754.678 1.76 1.68 1.169 1.169 1.78 1.75 1.884 1.792.207.088.631.088.804 0 .417-.21.602-.644.471-1.103-.067-.235-.113-.282-1.817-1.99-.994-.997-1.726-1.763-1.7-1.78.088-.059.648-.934.854-1.346a8.082 8.082 0 00-.8-8.554 8.125 8.125 0 00-5.5-3.127C8.588-.012 7.507-.012 7.11.038zm2.012 1.869c2.238.361 4.174 2.002 4.893 4.144.253.762.307 1.12.307 2.02 0 .69-.012.888-.092 1.25a6.296 6.296 0 01-2.011 3.458 6.33 6.33 0 01-2.891 1.444c-.58.126-1.793.134-2.365.02-2.512-.508-4.384-2.31-4.973-4.784-.156-.652-.181-1.72-.064-2.419a6.117 6.117 0 011.646-3.27 6.025 6.025 0 012.192-1.493 6.217 6.217 0 013.358-.37z" fill="#9F9F9F"/></svg>