<svg width="18" height="15" fill="none" xmlns="http://www.w3.org/2000/svg"><path d="M16.89.042c-.088.024-1.479.555-3.09 1.173L5.986 4.206C3.3 5.235.973 6.126.807 6.194.254 6.418 0 6.65 0 6.945c0 .19.088.313.316.435.155.085 4.238 1.384 4.39 1.398.027.003 2.187-1.33 4.8-2.967a1062.41 1062.41 0 014.859-3.03c.14-.07.361-.085.425-.021.035.035.031.06-.007.126-.028.046-1.784 1.636-3.898 3.532L7.04 9.87l-.126 1.777c-.07.976-.14 1.924-.151 2.1l-.025.326h.155c.28 0 .446-.13 1.6-1.236l1.09-1.043 2.082 1.524c1.373 1.008 2.148 1.552 2.275 1.605.126.049.274.077.421.077.369.004.587-.158.77-.576.034-.088.694-3.097 1.46-6.689 1.373-6.44 1.394-6.534 1.38-6.868-.01-.302-.025-.358-.12-.51-.186-.301-.579-.431-.962-.315z" fill="#3F3F40"/></svg>