<svg width="17" height="17" fill="none" xmlns="http://www.w3.org/2000/svg"><path d="M7.658.01a8.654 8.654 0 00-4.324 1.708c-.422.316-1.29 1.184-1.606 1.606A8.567 8.567 0 00.093 7.112C.003 7.631-.03 8.827.03 9.37a8.403 8.403 0 001.396 3.862l.173.256-.535 1.582a90.05 90.05 0 00-.525 1.588c.003.007.724-.219 1.602-.501.877-.283 1.625-.516 1.658-.516a.71.71 0 01.233.107A8.48 8.48 0 007.63 16.97c.542.06 1.738.026 2.257-.063a8.551 8.551 0 003.788-1.636c.422-.315 1.29-1.183 1.606-1.605a8.696 8.696 0 001.655-3.892c.086-.525.086-2.033 0-2.559a8.696 8.696 0 00-1.655-3.891c-.316-.422-1.184-1.29-1.606-1.606A8.594 8.594 0 009.888.083C9.565.027 9.316.01 8.638.003a15.133 15.133 0 00-.98.007zM5.83 3.955c.086.037.136.096.212.25.193.378.901 2.12.901 2.213 0 .156-.13.362-.452.73-.17.19-.326.38-.346.413-.09.17-.003.396.33.867.727 1.034 1.558 1.759 2.605 2.26.83.403.934.376 1.469-.365.386-.535.538-.662.761-.612.226.05 2.164.994 2.247 1.097.12.143.013.927-.18 1.303-.276.545-1.13 1.047-1.907 1.12-.808.08-2.732-.592-3.872-1.35-1.154-.767-2.34-2.023-3.264-3.45-.465-.717-.748-1.548-.748-2.196 0-.698.216-1.29.665-1.818.206-.25.399-.385.641-.459.193-.063.791-.063.938-.003z" fill="#3F3F40"/></svg>